<mxfile host="app.diagrams.net" modified="2024-07-16T11:24:31.981Z" agent="Mozilla/5.0 (X11; Ubuntu; Linux x86_64; rv:128.0) Gecko/20100101 Firefox/128.0" etag="VZfZOSgBQpnQv0dhB7Z2" version="24.6.5" type="github">
  <diagram name="Страница — 1" id="Pqkg7dd_0FznzTdAV4aw">
    <mxGraphModel dx="1114" dy="600" grid="1" gridSize="10" guides="1" tooltips="1" connect="1" arrows="1" fold="1" page="1" pageScale="1" pageWidth="827" pageHeight="1169" math="0" shadow="0">
      <root>
        <mxCell id="0" />
        <mxCell id="1" parent="0" />
        <mxCell id="yEL1GHBp93w6hT4M2cOs-1" value="" style="rounded=0;whiteSpace=wrap;html=1;" vertex="1" parent="1">
          <mxGeometry x="200" y="298" width="160" height="320" as="geometry" />
        </mxCell>
        <mxCell id="yEL1GHBp93w6hT4M2cOs-3" value="" style="rounded=0;whiteSpace=wrap;html=1;" vertex="1" parent="1">
          <mxGeometry x="440" y="298" width="160" height="320" as="geometry" />
        </mxCell>
        <mxCell id="yEL1GHBp93w6hT4M2cOs-4" value="" style="html=1;shadow=0;dashed=0;align=center;verticalAlign=middle;shape=mxgraph.arrows2.twoWayArrow;dy=0.6;dx=35;" vertex="1" parent="1">
          <mxGeometry x="360" y="298" width="80" height="60" as="geometry" />
        </mxCell>
        <mxCell id="yEL1GHBp93w6hT4M2cOs-15" value="" style="edgeStyle=orthogonalEdgeStyle;rounded=0;orthogonalLoop=1;jettySize=auto;html=1;" edge="1" parent="1" source="yEL1GHBp93w6hT4M2cOs-7" target="yEL1GHBp93w6hT4M2cOs-9">
          <mxGeometry relative="1" as="geometry" />
        </mxCell>
        <mxCell id="yEL1GHBp93w6hT4M2cOs-7" value="client_1" style="strokeWidth=2;html=1;shape=mxgraph.flowchart.start_1;whiteSpace=wrap;" vertex="1" parent="1">
          <mxGeometry x="60" y="10" width="80" height="30" as="geometry" />
        </mxCell>
        <mxCell id="yEL1GHBp93w6hT4M2cOs-16" value="" style="edgeStyle=orthogonalEdgeStyle;rounded=0;orthogonalLoop=1;jettySize=auto;html=1;" edge="1" parent="1" source="yEL1GHBp93w6hT4M2cOs-8" target="yEL1GHBp93w6hT4M2cOs-9">
          <mxGeometry relative="1" as="geometry" />
        </mxCell>
        <mxCell id="yEL1GHBp93w6hT4M2cOs-8" value="client_2" style="strokeWidth=2;html=1;shape=mxgraph.flowchart.start_1;whiteSpace=wrap;" vertex="1" parent="1">
          <mxGeometry x="60" y="60" width="80" height="30" as="geometry" />
        </mxCell>
        <mxCell id="yEL1GHBp93w6hT4M2cOs-9" value="internet" style="ellipse;shape=cloud;whiteSpace=wrap;html=1;" vertex="1" parent="1">
          <mxGeometry x="200" y="10" width="120" height="80" as="geometry" />
        </mxCell>
        <mxCell id="yEL1GHBp93w6hT4M2cOs-10" value="" style="verticalLabelPosition=bottom;verticalAlign=top;html=1;shape=mxgraph.flowchart.summing_function;" vertex="1" parent="1">
          <mxGeometry x="250" y="578" width="70" height="70" as="geometry" />
        </mxCell>
        <mxCell id="yEL1GHBp93w6hT4M2cOs-11" value="" style="verticalLabelPosition=bottom;verticalAlign=top;html=1;shape=mxgraph.flowchart.summing_function;" vertex="1" parent="1">
          <mxGeometry x="493" y="578" width="70" height="70" as="geometry" />
        </mxCell>
        <mxCell id="yEL1GHBp93w6hT4M2cOs-13" value="" style="outlineConnect=0;dashed=0;verticalLabelPosition=bottom;verticalAlign=top;align=center;html=1;shape=mxgraph.aws3.classic_load_balancer;fillColor=#F58534;gradientColor=none;" vertex="1" parent="1">
          <mxGeometry x="365.5" y="90" width="69" height="72" as="geometry" />
        </mxCell>
        <mxCell id="yEL1GHBp93w6hT4M2cOs-22" style="edgeStyle=orthogonalEdgeStyle;rounded=1;orthogonalLoop=1;jettySize=auto;html=1;exitX=0;exitY=0.5;exitDx=0;exitDy=0;exitPerimeter=0;curved=0;" edge="1" parent="1" source="yEL1GHBp93w6hT4M2cOs-14" target="yEL1GHBp93w6hT4M2cOs-1">
          <mxGeometry relative="1" as="geometry" />
        </mxCell>
        <mxCell id="yEL1GHBp93w6hT4M2cOs-23" style="edgeStyle=orthogonalEdgeStyle;rounded=1;orthogonalLoop=1;jettySize=auto;html=1;exitX=1;exitY=0.5;exitDx=0;exitDy=0;exitPerimeter=0;curved=0;" edge="1" parent="1" source="yEL1GHBp93w6hT4M2cOs-14" target="yEL1GHBp93w6hT4M2cOs-3">
          <mxGeometry relative="1" as="geometry" />
        </mxCell>
        <mxCell id="yEL1GHBp93w6hT4M2cOs-14" value="" style="outlineConnect=0;dashed=0;verticalLabelPosition=bottom;verticalAlign=top;align=center;html=1;shape=mxgraph.aws3.router;fillColor=#F58534;gradientColor=none;" vertex="1" parent="1">
          <mxGeometry x="366" y="190" width="69" height="72" as="geometry" />
        </mxCell>
        <mxCell id="yEL1GHBp93w6hT4M2cOs-20" style="edgeStyle=orthogonalEdgeStyle;rounded=0;orthogonalLoop=1;jettySize=auto;html=1;exitX=0.875;exitY=0.5;exitDx=0;exitDy=0;exitPerimeter=0;entryX=0.5;entryY=0;entryDx=0;entryDy=0;entryPerimeter=0;" edge="1" parent="1" source="yEL1GHBp93w6hT4M2cOs-9" target="yEL1GHBp93w6hT4M2cOs-13">
          <mxGeometry relative="1" as="geometry" />
        </mxCell>
        <mxCell id="yEL1GHBp93w6hT4M2cOs-21" style="edgeStyle=orthogonalEdgeStyle;rounded=0;orthogonalLoop=1;jettySize=auto;html=1;exitX=0.5;exitY=1;exitDx=0;exitDy=0;exitPerimeter=0;entryX=0.5;entryY=0;entryDx=0;entryDy=0;entryPerimeter=0;" edge="1" parent="1" source="yEL1GHBp93w6hT4M2cOs-13" target="yEL1GHBp93w6hT4M2cOs-14">
          <mxGeometry relative="1" as="geometry" />
        </mxCell>
      </root>
    </mxGraphModel>
  </diagram>
</mxfile>
